<?xml version="1.0" standalone="no"?>
<!DOCTYPE svg PUBLIC "-//W3C//DTD SVG 20010904//EN"
 "http://www.w3.org/TR/2001/REC-SVG-20010904/DTD/svg10.dtd">
<svg version="1.0" xmlns="http://www.w3.org/2000/svg"
 width="533.000000pt" height="468.000000pt" viewBox="0 0 533.000000 468.000000"
 preserveAspectRatio="xMidYMid meet">

<g transform="translate(0.000000,468.000000) scale(0.100000,-0.100000)"
fill="#000000" stroke="none">
<path d="M2840 4604 c-19 -2 -78 -9 -130 -15 -392 -44 -816 -226 -1145 -492
-193 -156 -398 -395 -531 -619 -58 -98 -144 -270 -144 -287 0 -3 24 39 53 94
320 607 905 1010 1587 1095 46 5 157 10 245 10 459 0 897 -150 1255 -428 850
-663 1051 -1859 463 -2756 -210 -321 -486 -563 -835 -731 -781 -376 -1712
-221 -2331 388 -157 154 -258 288 -367 484 -33 59 -60 104 -60 100 0 -15 104
-214 158 -300 94 -153 200 -286 337 -422 362 -362 811 -585 1308 -650 137 -17
395 -20 535 -4 762 83 1437 552 1782 1239 164 326 240 649 240 1016 0 192 -12
313 -47 479 -88 420 -288 794 -593 1109 -197 203 -383 338 -635 461 -223 109
-436 175 -675 210 -104 15 -402 27 -470 19z"/>
<path d="M860 2911 c-46 -14 -85 -39 -121 -78 -20 -21 -148 -216 -285 -433
-136 -217 -280 -447 -321 -512 -40 -64 -73 -119 -73 -122 0 -3 85 -6 189 -6
l188 0 224 355 c123 195 227 353 231 352 9 -2 258 -398 258 -409 0 -4 -95 -9
-211 -10 l-212 -3 -88 -140 -88 -140 581 -3 c320 -1 583 0 585 2 5 5 -634
1046 -660 1074 -50 55 -143 89 -197 73z"/>
<path d="M2066 2899 c-98 -23 -206 -103 -249 -184 -15 -30 -22 -64 -25 -133
-4 -88 -3 -96 27 -157 52 -105 158 -174 296 -195 39 -5 203 -10 365 -10 275 0
297 -1 327 -20 58 -35 53 -93 -10 -127 -29 -16 -75 -19 -425 -23 l-392 -5 -96
-140 -95 -140 497 -3 c422 -2 507 0 558 13 117 30 208 102 257 201 81 164 28
363 -123 464 -106 70 -122 73 -496 79 -281 5 -334 8 -342 21 -13 21 -12 33 4
56 14 18 31 19 390 22 l376 3 88 132 c49 73 92 138 96 145 6 9 -95 12 -491 11
-274 -1 -515 -5 -537 -10z"/>
<path d="M3300 2335 l0 -575 155 0 155 0 0 215 0 215 305 0 305 0 0 -215 0
-215 155 0 155 0 0 575 0 575 -155 0 -155 0 0 -210 0 -210 -305 0 -305 0 0
210 0 210 -155 0 -155 0 0 -575z"/>
</g>
</svg>
