<?xml version="1.0" standalone="no"?>
<!DOCTYPE svg PUBLIC "-//W3C//DTD SVG 20010904//EN"
 "http://www.w3.org/TR/2001/REC-SVG-20010904/DTD/svg10.dtd">
<svg version="1.0" xmlns="http://www.w3.org/2000/svg"
 width="450.000000pt" height="404.000000pt" viewBox="0 0 450.000000 404.000000"
 preserveAspectRatio="xMidYMid meet">

<g transform="translate(0.000000,404.000000) scale(0.100000,-0.100000)"
fill="#000000" stroke="none">
<path d="M1545 2448 c-3 -24 -5 -234 -3 -468 l3 -425 698 -3 697 -2 1 92 c0
51 0 257 0 458 -1 201 -1 371 -1 378 0 9 -146 12 -694 12 l-695 0 -6 -42z
m1365 -358 c0 -198 -2 -360 -5 -360 -2 0 -66 63 -143 140 l-138 140 -125 -125
c-68 -68 -128 -123 -132 -122 -5 1 -89 83 -187 182 l-179 179 -206 -207 c-114
-114 -210 -207 -213 -207 -4 0 -6 166 -4 370 l2 370 665 0 665 0 0 -360z"/>
<path d="M2372 2255 c-55 -46 -51 -123 7 -158 89 -52 185 38 136 128 -31 58
-94 71 -143 30z"/>
</g>
</svg>
